<?xml version="1.0"?>
<svg xmlns="http://www.w3.org/2000/svg" width="324" height="291" viewBox="0 0 324 291" role="img" aria-label="Blackout logo">
  <path d="M 6.0 258.0 L 8.0 261.0 L 159.0 284.0 L 317.0 260.0 L 282.0 199.0 L 239.0 198.0 L 262.0 189.0 L 266.0 185.0 L 163.0 7.0 L 160.0 7.0 L 57.0 186.0 L 84.0 198.0 L 41.0 199.0 Z M 74.0 176.0 L 129.0 80.0 L 141.0 61.0 L 160.0 27.0 L 162.0 26.0 L 249.0 176.0 Z M 23.0 249.0 L 44.0 212.0 L 47.0 209.0 L 276.0 209.0 L 279.0 212.0 L 292.0 234.0 L 299.0 250.0 L 26.0 251.0 Z M 163.0 47.0 L 163.0 112.0 L 165.0 114.0 L 179.0 120.0 L 215.0 139.0 L 218.0 139.0 L 215.0 133.0 L 173.0 60.0 L 169.0 55.0 L 166.0 48.0 Z M 159.0 47.0 L 157.0 48.0 L 155.0 53.0 L 147.0 67.0 L 135.0 86.0 L 128.0 100.0 L 120.0 112.0 L 106.0 137.0 L 106.0 139.0 L 108.0 139.0 L 154.0 115.0 L 156.0 115.0 L 159.0 113.0 L 160.0 111.0 Z M 135.0 144.0 L 133.0 142.0 L 122.0 136.0 L 117.0 138.0 L 115.0 140.0 L 111.0 141.0 L 100.0 147.0 L 97.0 152.0 L 95.0 157.0 L 90.0 164.0 L 89.0 166.0 L 89.0 169.0 L 115.0 169.0 L 117.0 168.0 L 132.0 149.0 Z M 188.0 145.0 L 192.0 149.0 L 194.0 153.0 L 199.0 158.0 L 202.0 163.0 L 206.0 168.0 L 208.0 169.0 L 234.0 168.0 L 234.0 166.0 L 223.0 147.0 L 218.0 144.0 L 210.0 141.0 L 204.0 137.0 L 199.0 137.0 L 190.0 142.0 Z M 158.0 120.0 L 153.0 122.0 L 148.0 127.0 L 146.0 132.0 L 146.0 140.0 L 148.0 144.0 L 153.0 149.0 L 157.0 151.0 L 166.0 151.0 L 170.0 149.0 L 175.0 144.0 L 177.0 139.0 L 177.0 131.0 L 175.0 127.0 L 170.0 122.0 L 166.0 120.0 Z M 123.0 169.0 L 158.0 169.0 L 160.0 167.0 L 160.0 159.0 L 159.0 157.0 L 157.0 155.0 L 148.0 151.0 L 146.0 149.0 L 143.0 148.0 L 140.0 146.0 L 135.0 150.0 L 132.0 155.0 L 124.0 164.0 Z M 163.0 158.0 L 163.0 167.0 L 164.0 169.0 L 201.0 167.0 L 199.0 164.0 L 191.0 155.0 L 188.0 150.0 L 184.0 146.0 L 177.0 149.0 L 168.0 155.0 L 166.0 155.0 Z M 201.0 217.0 L 196.0 219.0 L 193.0 222.0 L 191.0 226.0 L 191.0 233.0 L 192.0 236.0 L 196.0 240.0 L 200.0 242.0 L 206.0 242.0 L 211.0 240.0 L 214.0 237.0 L 216.0 233.0 L 216.0 226.0 L 214.0 222.0 L 209.0 218.0 L 206.0 217.0 Z M 48.0 219.0 L 49.0 228.0 L 48.0 240.0 L 51.0 242.0 L 65.0 241.0 L 67.0 240.0 L 69.0 237.0 L 68.0 222.0 L 67.0 220.0 L 64.0 218.0 L 59.0 217.0 L 51.0 217.0 Z M 112.0 217.0 L 110.0 219.0 L 103.0 236.0 L 102.0 239.0 L 103.0 242.0 L 107.0 242.0 L 109.0 241.0 L 111.0 238.0 L 117.0 238.0 L 119.0 241.0 L 121.0 242.0 L 126.0 241.0 L 126.0 238.0 L 125.0 235.0 L 122.0 230.0 L 121.0 225.0 L 119.0 222.0 L 119.0 220.0 L 118.0 218.0 L 116.0 217.0 Z M 224.0 218.0 L 224.0 235.0 L 225.0 237.0 L 229.0 241.0 L 232.0 242.0 L 238.0 242.0 L 242.0 240.0 L 245.0 237.0 L 246.0 234.0 L 246.0 218.0 L 243.0 217.0 L 241.0 217.0 L 239.0 218.0 L 239.0 232.0 L 236.0 235.0 L 233.0 235.0 L 231.0 233.0 L 231.0 218.0 L 229.0 217.0 L 226.0 217.0 Z M 142.0 217.0 L 137.0 219.0 L 134.0 222.0 L 132.0 226.0 L 132.0 233.0 L 134.0 237.0 L 137.0 240.0 L 141.0 242.0 L 147.0 242.0 L 152.0 240.0 L 155.0 237.0 L 155.0 234.0 L 150.0 232.0 L 146.0 235.0 L 143.0 235.0 L 140.0 233.0 L 139.0 231.0 L 139.0 228.0 L 140.0 226.0 L 143.0 224.0 L 146.0 224.0 L 148.0 226.0 L 152.0 226.0 L 155.0 225.0 L 155.0 222.0 L 150.0 218.0 L 147.0 217.0 Z M 164.0 218.0 L 165.0 242.0 L 170.0 241.0 L 170.0 236.0 L 172.0 234.0 L 175.0 239.0 L 177.0 241.0 L 179.0 242.0 L 185.0 241.0 L 185.0 239.0 L 177.0 229.0 L 177.0 227.0 L 185.0 218.0 L 183.0 217.0 L 178.0 217.0 L 176.0 218.0 L 173.0 222.0 L 170.0 222.0 L 169.0 217.0 L 166.0 217.0 Z M 255.0 217.0 L 253.0 219.0 L 254.0 224.0 L 260.0 225.0 L 260.0 240.0 L 263.0 242.0 L 265.0 242.0 L 267.0 241.0 L 267.0 226.0 L 269.0 224.0 L 275.0 223.0 L 275.0 219.0 L 272.0 217.0 Z M 78.0 218.0 L 78.0 241.0 L 80.0 242.0 L 86.0 241.0 L 95.0 241.0 L 96.0 237.0 L 95.0 235.0 L 86.0 235.0 L 84.0 233.0 L 83.0 217.0 Z M 202.0 224.0 L 205.0 224.0 L 209.0 228.0 L 209.0 231.0 L 205.0 235.0 L 202.0 235.0 L 200.0 234.0 L 198.0 232.0 L 198.0 228.0 L 199.0 226.0 Z M 56.0 234.0 L 57.0 232.0 L 61.0 235.0 Z M 56.0 225.0 L 61.0 225.0 L 58.0 227.0 Z" fill="#231f20" fill-rule="evenodd"></path>
</svg>